<?xml version="1.0" standalone="no"?>
<!DOCTYPE svg PUBLIC "-//W3C//DTD SVG 20010904//EN"
 "http://www.w3.org/TR/2001/REC-SVG-20010904/DTD/svg10.dtd">
<svg version="1.0" xmlns="http://www.w3.org/2000/svg"
 width="300.000000pt" height="261.000000pt" viewBox="0 0 300.000000 261.000000"
 preserveAspectRatio="xMidYMid meet">
<metadata>
Created by potrace 1.10, written by Peter Selinger 2001-2011
</metadata>
<g transform="translate(0.000000,261.000000) scale(0.100000,-0.100000)"
fill="#000000" stroke="none">
<path d="M1380 2589 c-302 -28 -568 -154 -785 -373 -154 -154 -248 -306 -314
-502 -100 -298 -81 -660 50 -939 68 -146 146 -255 273 -380 185 -184 409 -301
666 -350 117 -23 329 -27 415 -8 11 2 36 6 55 9 53 7 169 41 241 70 358 145
644 455 753 815 163 539 -41 1126 -501 1437 -193 130 -385 200 -608 222 -120
11 -120 11 -245 -1z m303 -35 c333 -49 629 -225 829 -494 105 -141 185 -315
219 -475 29 -137 35 -336 15 -470 -49 -313 -216 -597 -466 -792 -150 -117
-275 -178 -480 -235 -90 -25 -127 -30 -260 -33 -147 -4 -214 2 -305 26 -22 6
-58 15 -80 21 -22 6 -49 14 -60 19 -11 5 -44 18 -73 29 -146 56 -275 143 -409
276 -333 332 -448 790 -313 1251 60 203 161 367 324 528 121 120 253 210 381
259 39 15 79 31 90 35 152 61 393 84 588 55z"/>
<path d="M1370 2515 c-8 -2 -49 -9 -90 -15 -222 -36 -460 -163 -634 -336 -366
-367 -458 -914 -231 -1380 116 -238 297 -425 526 -544 486 -251 1048 -161
1429 228 169 173 279 385 325 623 20 106 20 331 0 438 -68 358 -292 668 -606
840 -184 100 -334 140 -549 146 -85 2 -162 2 -170 0z m270 -25 c30 -5 75 -11
100 -15 25 -3 50 -11 57 -17 7 -6 13 -8 13 -5 0 9 126 -36 205 -73 39 -18 91
-48 118 -66 26 -19 49 -34 52 -34 3 0 11 -5 18 -10 122 -102 174 -152 213
-204 24 -33 26 -38 8 -28 -29 15 -82 -12 -174 -89 -64 -54 -90 -65 -90 -38 0
6 7 17 15 25 8 9 15 26 15 38 0 16 13 32 41 51 50 36 61 56 57 108 -3 42 -30
76 -83 105 -32 17 -67 -9 -145 -112 -47 -62 -77 -93 -86 -89 -18 7 -18 17 2
33 9 8 14 25 12 43 -2 23 4 38 25 58 15 15 27 36 27 46 0 10 7 27 15 37 8 11
15 27 15 36 0 27 -56 68 -117 85 -33 9 -67 -30 -112 -133 -23 -50 -41 -97 -41
-102 0 -11 -33 -14 -43 -4 -3 4 -2 15 4 26 12 22 39 170 39 212 0 34 -25 66
-50 66 -10 0 -28 -8 -40 -18 -22 -18 -23 -17 -50 10 -57 56 -86 27 -110 -112
-10 -55 -17 -112 -14 -125 4 -23 1 -25 -29 -25 l-33 0 -3 93 c-1 74 1 97 14
107 23 19 18 56 -11 79 -47 37 -162 7 -170 -43 -1 -9 8 -33 22 -53 13 -20 25
-52 25 -72 2 -50 5 -73 13 -97 5 -17 2 -23 -15 -27 -27 -7 -39 -1 -39 20 0 8
-11 28 -25 45 -20 23 -25 41 -25 82 0 45 -4 56 -30 81 -27 26 -33 27 -86 22
-74 -8 -105 -34 -94 -80 17 -77 55 -193 67 -205 19 -19 16 -25 -18 -45 -39
-22 -49 -15 -49 31 0 21 -10 58 -22 82 -18 35 -35 51 -75 71 -34 16 -63 24
-83 21 -16 -2 -30 0 -30 4 1 11 80 62 135 88 22 10 54 25 70 32 17 8 40 16 50
18 11 2 34 10 50 16 54 22 139 40 210 46 39 4 72 8 74 10 7 7 154 3 211 -6z
m-170 -84 c0 -20 -5 -26 -23 -26 -22 0 -23 -2 -16 -72 13 -124 12 -128 -16
-128 -23 0 -25 4 -25 48 0 26 -3 71 -7 100 -5 44 -9 52 -24 47 -12 -4 -19 1
-24 14 -10 32 -2 36 69 39 65 3 66 3 66 -22z m180 12 c0 -7 -4 -29 -9 -49 -8
-36 -8 -37 27 -43 20 -3 38 -4 40 -2 2 3 6 23 9 45 5 35 9 41 30 41 23 0 25
-3 20 -32 -4 -18 -11 -71 -18 -118 -13 -94 -18 -104 -43 -94 -14 6 -16 15 -10
60 l6 54 -31 0 c-17 0 -34 1 -38 3 -4 1 -11 -20 -15 -46 -8 -58 -8 -58 -34
-51 l-20 5 19 120 c19 113 21 119 44 119 12 0 23 -6 23 -12z m-440 -58 c22
-22 26 -61 8 -89 -9 -16 -5 -24 30 -56 23 -20 42 -41 42 -45 0 -4 -11 -10 -25
-13 -21 -3 -32 4 -62 40 -20 24 -38 41 -41 38 -3 -2 3 -25 13 -50 19 -51 19
-52 -9 -57 -16 -2 -25 14 -57 112 -20 63 -36 116 -36 117 5 5 75 21 95 22 12
1 31 -8 42 -19z m781 -36 c54 -25 57 -28 47 -50 l-11 -24 -34 21 c-34 21 -48
18 -55 -10 -2 -8 11 -18 31 -25 38 -14 45 -24 31 -46 -8 -12 -14 -12 -46 3
-20 10 -38 17 -39 15 -12 -15 -25 -50 -20 -57 3 -5 19 -12 35 -16 37 -8 43
-17 27 -39 -11 -16 -16 -15 -67 5 -30 13 -56 24 -58 25 -4 3 92 223 98 224 2
0 30 -12 61 -26z m-1035 -99 c36 -24 57 -62 57 -106 0 -50 -26 -87 -77 -113
-36 -17 -39 -18 -82 -1 -54 20 -84 63 -84 118 0 102 101 158 186 102z m-211
-40 c-19 -53 -18 -82 4 -128 14 -31 76 -87 95 -87 3 0 17 -5 31 -10 l26 -10
-29 -25 c-17 -14 -34 -25 -38 -25 -5 0 -27 17 -49 38 -52 49 -154 122 -172
122 -28 0 -10 27 63 98 42 40 78 72 80 70 1 -2 -3 -22 -11 -43z m1477 -2 c24
-23 38 -46 38 -62 0 -31 -37 -71 -66 -71 -24 0 -28 -9 -39 -79 l-7 -43 -20 20
c-19 18 -20 24 -8 72 7 28 10 53 8 56 -3 2 -18 -14 -33 -36 -30 -44 -37 -47
-54 -26 -10 12 2 33 61 110 40 53 75 96 78 96 2 0 21 -17 42 -37z m-530 -59
c455 -97 765 -535 703 -994 -35 -264 -158 -466 -384 -633 -62 -46 -194 -106
-292 -133 -82 -23 -337 -26 -419 -5 -63 16 -217 76 -241 94 -33 25 9 121 61
139 8 3 11 9 7 14 -11 11 -55 -15 -79 -46 -10 -14 -19 -39 -21 -57 l-2 -31
-57 40 c-31 22 -83 68 -116 102 -188 197 -275 445 -250 719 31 336 261 636
581 756 159 59 339 72 509 35z m-909 -255 c-16 -16 -26 -17 -91 -8 -106 15
-111 10 -42 -40 51 -37 58 -46 48 -60 -7 -9 -13 -18 -15 -20 -1 -2 -35 23 -76
56 -41 32 -85 66 -98 74 -21 14 -22 18 -10 33 16 19 63 21 141 6 29 -6 55 -8
57 -6 2 2 -22 23 -54 46 -32 24 -59 44 -61 46 -2 1 1 12 8 23 10 20 15 17 111
-56 95 -74 99 -78 82 -94z m1634 131 c11 -16 7 -32 -22 -101 -19 -46 -33 -84
-32 -86 2 -1 31 20 65 47 59 49 61 50 73 29 6 -12 7 -24 2 -28 -4 -4 -47 -37
-94 -73 -64 -48 -90 -63 -98 -55 -17 17 -14 38 19 117 17 40 29 75 27 77 -2 2
-30 -17 -61 -43 -47 -39 -58 -44 -71 -34 -9 7 -14 17 -13 22 3 9 178 146 188
147 3 1 11 -8 17 -19z m-1854 -25 c7 -18 -6 -27 -27 -19 -17 7 -20 16 -9 27
11 12 31 8 36 -8z m1947 -36 c0 -4 -13 -9 -30 -11 -25 -4 -30 -1 -30 17 0 11
6 27 12 33 10 10 16 8 30 -10 10 -13 18 -26 18 -29z m-1850 -222 c14 -6 27
-12 29 -14 2 -1 -6 -21 -17 -45 -44 -93 -62 -138 -62 -152 0 -8 -7 -41 -15
-73 -30 -109 -26 -291 9 -428 15 -58 31 -103 51 -144 14 -27 25 -52 25 -55 0
-4 20 -37 44 -74 48 -71 163 -197 209 -226 15 -10 27 -22 27 -26 0 -17 -47 5
-92 42 -39 32 -53 39 -76 33 -27 -5 -28 -4 -24 28 3 27 -1 38 -18 50 -20 14
-28 14 -69 1 -56 -17 -51 -16 -51 -3 0 6 11 20 25 31 30 23 31 41 7 76 -10 15
-26 46 -36 69 -10 23 -25 44 -32 47 -8 3 -14 20 -14 39 0 20 -9 46 -22 62 -16
21 -21 39 -19 74 2 37 -2 50 -21 68 -20 18 -29 20 -65 14 -47 -9 -92 -35 -94
-54 -1 -6 -1 -19 0 -27 1 -13 0 -13 -8 0 -31 52 -44 324 -21 465 14 93 56 236
80 280 11 19 17 35 14 35 -3 0 4 13 16 30 l21 29 87 -70 c48 -40 98 -76 112
-82z m1919 97 c13 -25 24 -50 25 -57 2 -7 10 -29 20 -49 70 -158 84 -462 32
-688 -3 -14 -8 -37 -12 -52 -7 -33 -15 -35 -37 -10 -15 16 -15 20 3 47 44 67
16 113 -69 117 -46 2 -56 -1 -73 -22 -15 -19 -18 -33 -14 -63 5 -26 2 -45 -9
-60 -8 -12 -15 -34 -15 -50 0 -16 -9 -42 -20 -57 -11 -16 -18 -35 -15 -42 3
-8 -10 -38 -30 -67 -19 -29 -35 -55 -35 -58 0 -3 -11 -14 -24 -24 -14 -11 -30
-34 -37 -53 -7 -20 -22 -37 -39 -43 -31 -12 -55 -43 -66 -86 -5 -24 0 -34 36
-69 l43 -40 -24 -19 c-55 -44 -56 -44 -89 21 -27 53 -34 60 -61 60 -20 0 -38
-9 -55 -27 -18 -19 -37 -28 -62 -30 -28 -1 -44 -10 -68 -37 -18 -21 -34 -32
-40 -26 -5 5 -21 10 -36 12 -31 4 -50 18 -25 18 19 0 169 67 177 79 3 5 19 16
37 25 41 21 143 105 196 163 59 64 144 203 171 281 54 154 61 191 61 337 -1
153 -16 229 -75 367 -33 77 -35 88 -19 88 16 0 150 95 184 130 16 16 32 30 35
30 4 0 17 -20 29 -46z m-39 -729 c12 -14 15 -14 36 0 29 19 34 19 34 0 0 -9
-12 -21 -27 -27 -27 -11 -27 -12 -5 -15 12 -3 22 -11 22 -20 0 -10 -6 -13 -16
-9 -9 3 -36 6 -60 6 -42 0 -44 2 -44 28 0 46 35 68 60 37z m-2030 -34 c0 -47
-20 -71 -60 -71 -32 0 -60 31 -60 66 0 18 8 24 48 32 73 15 72 16 72 -27z
m-111 -88 c25 -23 26 -23 6 -38 -23 -18 -30 -9 -39 50 -3 22 -3 34 0 26 4 -8
19 -25 33 -38z m2093 -9 c-3 -19 -1 -25 7 -20 6 4 11 14 11 22 0 8 7 14 15 14
11 0 14 -7 9 -25 -4 -16 -2 -25 6 -25 6 0 14 9 17 20 9 33 35 25 27 -7 -10
-42 -16 -44 -72 -32 -53 13 -61 24 -46 63 11 27 32 19 26 -10z m-1946 -29 c9
-37 -2 -57 -30 -53 -13 1 -33 -6 -45 -16 -30 -27 -39 -11 -11 19 l23 24 -26
-2 c-42 -3 -31 15 20 33 64 23 62 23 69 -5z m1919 -65 c0 -7 19 -20 43 -27 23
-8 42 -19 42 -23 0 -19 -21 -20 -60 -1 -22 10 -40 15 -40 10 0 -5 -7 -9 -15
-9 -18 0 -19 11 -3 45 12 26 33 29 33 5z m135 7 c0 -7 -7 -22 -15 -33 -13 -16
-16 -17 -25 -4 -5 8 -10 18 -10 21 0 5 33 24 48 28 1 1 2 -5 2 -12z m-2010
-41 c0 -8 -4 -18 -10 -21 -18 -11 -11 -25 11 -22 12 1 24 -3 26 -9 2 -7 -13
-14 -39 -17 -24 -2 -53 -8 -65 -12 -31 -10 -30 12 0 26 12 5 30 23 39 40 18
31 38 39 38 15z m-70 0 c0 -3 -14 -18 -31 -36 -29 -29 -32 -30 -45 -13 -27 36
-16 45 59 52 9 0 17 -1 17 -3z m1937 -76 c56 -33 55 -48 -4 -52 l-48 -3 34
-18 c22 -13 30 -22 23 -29 -13 -13 -110 42 -105 60 3 7 23 12 51 12 l47 1 -30
16 c-39 20 -38 20 -30 33 8 13 6 13 62 -20z m-1797 -40 c0 -5 -16 -18 -35 -30
-30 -18 -34 -26 -29 -47 8 -31 -12 -28 -33 4 -13 19 -10 23 34 56 45 33 63 38
63 17z m-110 -17 c-14 -15 -26 -30 -28 -32 -5 -8 -26 19 -28 36 -3 14 5 19 39
21 l41 3 -24 -28z m1793 -40 c4 -3 0 -14 -9 -24 -10 -11 -12 -19 -5 -24 6 -3
14 1 17 9 3 9 12 16 20 16 17 0 17 -5 2 -30 -16 -26 0 -40 18 -16 10 14 17 17
25 9 7 -7 4 -18 -13 -36 l-23 -26 -44 38 c-43 38 -43 38 -26 65 18 27 27 31
38 19z m-1599 -41 c7 -12 -47 -123 -59 -119 -5 2 -9 12 -7 21 4 22 -17 48 -33
42 -12 -4 -43 10 -35 17 10 7 105 45 117 46 6 1 14 -3 17 -7z m1530 -65 c-2
-7 -14 -17 -27 -22 -26 -12 -35 -44 -15 -56 24 -16 48 -9 60 16 13 29 35 28
30 -1 -4 -26 -39 -54 -67 -54 -24 0 -65 42 -65 65 0 24 41 65 65 65 16 0 23
-5 19 -13z m-1452 -63 l-4 -49 26 34 c21 28 27 31 32 18 6 -18 -50 -92 -70
-92 -7 0 -10 18 -8 45 l3 45 -23 -26 c-13 -15 -29 -24 -36 -22 -15 6 57 104
73 99 6 -2 9 -25 7 -52z m228 -49 c30 -19 58 -35 62 -35 14 0 8 -20 -12 -42
-23 -25 -44 -92 -37 -119 8 -31 -7 -30 -72 1 -59 29 -78 50 -45 50 26 0 74 56
74 86 0 14 -9 42 -21 60 -11 19 -17 34 -12 34 5 0 33 -16 63 -35z m-86 -6 c14
-11 26 -30 26 -43 0 -30 -27 -66 -50 -66 -24 0 -70 21 -70 31 0 11 54 98 61
99 4 0 18 -9 33 -21z m1121 -8 c3 -6 -4 -15 -15 -21 -11 -6 -18 -15 -15 -20 4
-6 14 -5 25 2 25 16 41 0 17 -16 -17 -13 -23 -36 -9 -36 4 0 13 5 20 12 9 9
15 9 23 1 8 -8 4 -15 -12 -27 -34 -24 -41 -21 -72 31 l-29 47 24 18 c26 20 34
22 43 9z m-106 -60 c19 -12 5 -30 -18 -24 -17 4 -51 -20 -51 -37 0 -11 29 -40
41 -40 5 0 17 8 28 19 11 11 24 15 31 11 19 -12 -24 -50 -57 -50 -61 0 -85 71
-37 109 29 23 42 25 63 12z m-818 -21 c23 -13 25 -55 3 -64 -12 -4 -14 -14 -9
-36 5 -24 4 -29 -9 -24 -8 3 -17 18 -19 32 -4 27 -4 27 -12 4 -4 -13 -12 -21
-17 -20 -13 5 -13 7 6 66 18 54 25 59 57 42z m599 1 c0 -6 -6 -13 -12 -18 -17
-10 -108 -14 -108 -4 0 4 21 12 48 18 65 14 72 14 72 4z m-462 -53 c2 -12 -3
-14 -24 -10 -19 3 -25 1 -20 -7 4 -6 14 -11 22 -11 8 0 14 -6 14 -14 0 -9 -7
-12 -19 -9 -10 3 -22 0 -26 -7 -4 -7 1 -14 14 -17 33 -9 27 -35 -6 -27 -40 9
-44 16 -34 50 5 16 12 41 15 56 5 23 9 25 33 19 16 -4 29 -14 31 -23z m170 12
c-15 -23 -31 -26 -47 -7 -14 18 -4 27 31 27 26 0 27 -2 16 -20z m155 5 c-4
-25 -31 -28 -54 -6 l-24 22 40 -3 c22 -2 39 -7 38 -13z m212 -33 c0 -20 7 -39
18 -46 21 -16 22 -26 1 -26 -9 0 -24 10 -35 23 l-19 22 6 -29 c12 -51 -18 -24
-32 30 -18 67 -19 66 24 62 35 -3 37 -5 37 -36z m-430 8 c11 -17 -5 -32 -21
-19 -20 17 -17 3 6 -29 13 -17 18 -35 14 -45 -8 -22 -62 -23 -71 -2 -8 22 4
30 22 15 26 -21 28 -4 4 29 -18 25 -20 33 -9 46 14 17 46 20 55 5z m254 -43
c4 -28 11 -42 21 -42 15 0 16 19 4 73 -3 15 0 22 10 22 16 0 31 -68 21 -99 -7
-25 -31 -34 -55 -21 -20 11 -38 89 -25 110 11 17 18 4 24 -43z m-97 26 c18
-16 24 -59 10 -79 -24 -37 -91 -36 -106 1 -26 69 43 126 96 78z m-362 -89 c0
-16 -9 -18 -29 -5 -7 5 -11 14 -7 19 9 15 36 4 36 -14z m114 -10 c20 -8 11
-24 -15 -24 -19 0 -25 11 -12 23 8 8 8 8 27 1z m147 -37 c-15 -15 -61 1 -55
18 3 7 13 16 22 18 21 5 46 -23 33 -36z m166 28 c18 -18 17 -20 -18 -28 -34
-9 -43 2 -22 25 20 22 20 22 40 3z"/>
<path d="M1135 2308 c10 -32 13 -34 33 -22 26 17 20 39 -11 42 -26 3 -28 1
-22 -20z"/>
<path d="M835 2175 c-14 -13 -25 -36 -25 -50 0 -35 50 -85 85 -85 32 0 75 41
75 72 0 23 -24 66 -44 80 -23 16 -67 7 -91 -17z m85 -35 c12 -22 -2 -60 -21
-60 -22 0 -49 21 -49 38 0 41 51 57 70 22z"/>
<path d="M2169 2134 c-11 -14 -10 -18 6 -30 16 -12 21 -12 34 0 12 12 12 18 1
30 -16 20 -24 20 -41 0z"/>
<path d="M1359 2086 c-238 -52 -439 -228 -508 -443 -12 -38 -26 -105 -30 -149
-7 -76 -6 -80 18 -112 l26 -32 6 102 c11 178 60 289 179 409 248 250 649 252
895 4 125 -126 185 -265 185 -434 l1 -86 29 35 c27 32 29 40 24 90 -37 364
-329 632 -689 629 -44 -1 -105 -7 -136 -13z"/>
<path d="M1331 1883 c0 -12 -5 -25 -11 -28 -5 -3 -10 -46 -10 -96 0 -88 0 -89
-24 -89 -33 0 -56 -25 -56 -62 0 -25 3 -29 18 -23 35 15 61 17 96 5 45 -15 86
-63 86 -101 0 -26 3 -29 34 -29 34 0 35 1 29 34 -11 68 54 150 128 162 44 7
43 5 28 73 -9 43 -8 53 5 67 9 8 14 20 11 25 -4 5 -58 9 -121 9 -107 0 -114
-1 -114 -20 0 -12 7 -20 16 -20 10 0 14 -6 11 -14 -3 -7 -9 -34 -12 -60 -7
-46 -8 -46 -46 -46 l-39 0 0 83 c0 46 -4 87 -9 93 -5 5 -11 20 -14 34 -4 22
-4 22 -6 3z m293 -123 c3 -16 9 -43 12 -60 l6 -30 -97 0 c-87 0 -96 2 -91 17
4 9 10 36 13 60 l6 43 73 0 72 0 6 -30z m-266 -102 c8 -8 37 -11 80 -10 37 1
74 -2 82 -8 9 -6 10 -10 3 -10 -7 0 -22 -27 -34 -60 -12 -33 -25 -60 -30 -60
-5 0 -15 13 -24 29 -19 37 -69 68 -123 77 l-41 6 32 23 c39 28 40 28 55 13z"/>
<path d="M1579 1617 c-71 -47 -86 -135 -34 -203 63 -82 210 -62 246 33 47 125
-101 245 -212 170z m77 -8 c4 -7 1 -10 -7 -7 -13 4 -22 -1 -59 -34 -12 -11
-22 -13 -25 -7 -8 12 14 41 26 33 5 -3 9 -1 9 5 0 8 15 15 42 20 4 0 10 -4 14
-10z m51 -61 c55 -52 -4 -143 -76 -116 -52 19 -67 75 -29 115 28 30 74 30 105
1z"/>
<path d="M1637 1524 c-12 -12 -8 -42 6 -47 21 -8 39 8 35 29 -3 19 -29 30 -41
18z"/>
<path d="M1251 1563 c-65 -32 -74 -111 -19 -170 17 -18 32 -23 71 -23 40 0 53
5 78 29 51 51 36 131 -31 166 -37 19 -57 19 -99 -2z m91 -50 c46 -41 -2 -120
-58 -95 -13 7 -29 23 -36 36 -24 55 48 101 94 59z"/>
<path d="M1285 1480 c-8 -14 3 -30 21 -30 8 0 14 9 14 20 0 21 -24 28 -35 10z"/>
<path d="M971 1455 c-49 -51 -82 -108 -80 -137 0 -7 9 5 19 28 10 23 35 58 56
79 l39 37 3 -26 c2 -14 -4 -40 -12 -58 -9 -17 -14 -33 -12 -36 3 -2 13 13 24
35 22 43 38 133 24 133 -5 0 -32 -25 -61 -55z"/>
<path d="M1962 1458 c13 -69 27 -93 87 -152 41 -41 57 -50 84 -49 41 1 107 34
143 70 26 28 77 124 69 131 -2 2 -26 -6 -52 -19 -42 -20 -129 -98 -172 -153
-11 -15 -15 -15 -22 -4 -5 7 -9 9 -9 3 0 -5 -19 11 -42 36 -44 47 -76 115 -62
129 17 17 92 -67 112 -125 6 -18 11 -23 11 -12 1 28 -34 89 -84 145 -61 68
-75 68 -63 0z m347 -59 c-31 -58 -119 -129 -160 -129 -12 0 1 33 20 48 9 7 14
16 11 20 -6 10 120 93 131 86 5 -3 4 -14 -2 -25z"/>
<path d="M671 1418 c12 -24 32 -58 45 -75 46 -61 166 -112 191 -81 9 10 2 13
-37 14 -60 2 -122 41 -154 96 -26 45 -15 59 24 30 16 -12 32 -22 35 -22 4 0
25 -19 47 -42 22 -24 36 -34 30 -22 -17 32 -86 91 -141 119 -28 14 -53 25 -56
25 -3 0 4 -19 16 -42z"/>
<path d="M1944 1323 c8 -60 28 -114 50 -132 9 -8 5 6 -10 34 -14 27 -24 59
-22 73 l3 24 28 -22 c46 -36 40 -17 -9 31 l-46 44 6 -52z"/>
<path d="M1027 1342 c-18 -20 -23 -37 -8 -28 18 11 17 -19 -1 -69 -15 -40 -15
-46 -3 -30 15 19 45 106 45 132 0 18 -14 16 -33 -5z"/>
<path d="M1245 1314 c-97 -9 -163 -20 -167 -27 -14 -23 -8 -28 14 -13 37 26
41 19 36 -52 -6 -85 -34 -148 -92 -210 l-45 -48 43 -43 43 -42 28 41 c40 58
147 155 227 207 140 91 288 144 448 162 77 8 88 7 113 -10 l27 -20 0 25 c0 14
-3 27 -7 29 -5 3 -120 7 -258 10 -180 4 -295 1 -410 -9z m335 -27 c-16 -15
-100 -50 -100 -42 0 2 -23 -9 -50 -25 -28 -17 -53 -30 -56 -30 -18 0 -142 -97
-215 -167 -83 -80 -119 -100 -119 -67 0 9 14 32 31 52 42 48 67 106 77 181 5
34 15 69 23 76 9 9 46 17 94 21 44 3 81 7 83 9 2 1 58 4 125 4 105 2 120 0
107 -12z"/>
<path d="M660 1300 c0 -21 38 -85 67 -111 37 -35 102 -67 150 -74 31 -5 43 -1
68 20 l30 25 -27 -6 c-27 -6 -27 -6 -16 33 5 21 15 46 20 57 7 14 7 17 -2 11
-16 -10 -40 -69 -40 -100 0 -29 -16 -34 -24 -7 -4 10 -21 32 -39 49 -38 38
-187 119 -187 103z m91 -50 c22 -12 61 -40 86 -64 42 -40 44 -44 25 -50 -35
-12 -130 52 -158 105 -18 35 -8 37 47 9z"/>
<path d="M2255 1269 c-38 -21 -91 -62 -116 -90 l-46 -50 -7 38 c-6 37 -43 109
-51 101 -3 -3 4 -23 15 -46 28 -58 27 -74 -6 -62 -38 15 -39 13 -6 -15 56 -47
153 -30 232 41 35 31 80 99 80 119 0 12 -30 1 -95 -36z m36 -36 c-20 -39 -60
-75 -98 -87 -78 -25 -84 -6 -16 50 66 55 95 74 116 74 16 0 16 -2 -2 -37z"/>
<path d="M1785 1265 c-249 -55 -492 -206 -611 -379 -30 -46 -32 -50 -16 -62
25 -19 37 -17 49 9 29 61 167 193 268 258 94 60 318 149 376 149 12 0 19 7 19
20 0 23 -3 23 -85 5z"/>
<path d="M1049 1203 c-18 -21 -25 -30 -13 -20 29 24 48 22 41 -4 -3 -12 -2
-18 2 -13 12 13 22 74 13 74 -5 0 -24 -17 -43 -37z"/>
<path d="M1900 1218 c0 -21 5 -28 19 -28 41 0 99 -76 115 -152 5 -23 3 -26
-11 -21 -10 3 -23 9 -28 12 -6 3 3 -6 20 -21 18 -17 42 -28 60 -28 20 0 26 3
17 9 -11 6 -9 14 10 33 29 32 114 84 152 94 l29 7 -19 -33 c-10 -18 -35 -46
-54 -62 l-35 -30 31 16 c45 22 127 127 111 142 -11 11 -191 -90 -227 -127
l-40 -41 0 31 c0 51 -24 94 -89 162 -57 61 -60 63 -61 37z"/>
<path d="M1785 1171 c-154 -61 -266 -131 -361 -226 -79 -78 -142 -174 -123
-186 29 -18 46 -7 87 56 50 75 150 169 243 226 64 39 205 99 234 99 17 0 18 4
9 38 -8 27 -3 27 -89 -7z"/>
<path d="M1910 1155 c0 -11 9 -33 21 -50 19 -28 20 -28 14 -5 -4 14 -14 36
-21 50 -12 22 -13 23 -14 5z"/>
<path d="M680 1153 c0 -12 40 -76 64 -101 11 -13 39 -33 61 -43 32 -16 35 -16
15 -2 -48 33 -102 95 -92 105 6 6 16 7 24 2 7 -5 15 -9 18 -9 20 -2 83 -42
114 -71 30 -28 35 -38 25 -45 -10 -6 -6 -9 14 -9 28 0 77 26 77 40 0 5 -9 6
-19 3 -19 -5 -19 -3 -6 45 7 28 16 56 20 64 5 8 2 8 -7 -2 -20 -19 -38 -74
-38 -113 l0 -29 -42 42 c-23 23 -82 62 -130 86 -92 46 -98 48 -98 37z"/>
<path d="M1800 1038 c-101 -55 -155 -93 -218 -152 -50 -47 -122 -136 -122
-150 0 -11 101 -6 178 10 100 20 204 72 284 140 84 73 87 80 51 113 -17 15
-38 39 -48 54 -9 15 -25 27 -34 27 -9 0 -50 -19 -91 -42z m114 -19 c45 -35 51
-57 24 -86 -70 -75 -225 -152 -338 -168 -25 -3 -53 -8 -62 -11 -26 -8 -16 19
25 69 41 50 182 161 219 173 13 3 25 10 28 13 7 9 52 29 66 30 6 1 23 -8 38
-20z"/>
<path d="M803 923 c151 -242 446 -395 731 -380 125 6 205 27 321 82 108 50
196 115 263 193 52 61 124 164 118 169 -2 2 -23 -6 -47 -19 -30 -15 -62 -22
-102 -23 -54 -1 -61 -3 -90 -37 -138 -154 -371 -238 -586 -208 -146 20 -301
97 -402 201 -46 48 -49 49 -106 49 -39 0 -71 7 -96 20 -20 11 -39 20 -42 20
-2 0 15 -30 38 -67z m114 -4 c26 1 42 -8 85 -49 58 -56 176 -131 235 -151 21
-6 43 -14 48 -18 6 -3 13 -6 18 -7 4 -1 8 -2 10 -4 13 -10 118 -21 195 -20
124 1 217 26 345 94 71 37 75 41 143 107 34 34 49 41 89 45 26 3 52 7 57 10
13 8 9 -26 -4 -41 -7 -7 -29 -32 -48 -55 -93 -111 -269 -214 -419 -245 -90
-19 -206 -25 -266 -14 -27 5 -61 11 -75 13 -38 6 -121 36 -158 57 -18 10 -37
19 -43 19 -43 0 -279 213 -279 252 0 15 4 18 18 13 9 -4 32 -7 49 -6z"/>
<path d="M1866 601 c-3 -4 6 -13 19 -19 28 -13 65 -67 65 -96 0 -15 3 -17 11
-9 18 18 2 62 -36 100 -33 33 -49 40 -59 24z"/>
<path d="M1118 531 c-32 -56 -33 -61 -15 -61 7 0 19 15 26 33 l14 32 6 -40
c12 -70 21 -72 52 -14 32 57 35 69 18 69 -6 0 -16 -13 -22 -30 -16 -43 -27
-37 -27 15 0 60 -18 58 -52 -4z"/>
<path d="M1790 550 c-11 -11 -20 -30 -20 -43 0 -27 38 -67 63 -67 21 0 74 46
65 56 -5 4 -16 0 -26 -9 -25 -23 -59 -21 -72 3 -15 28 4 60 35 60 14 0 25 5
25 10 0 18 -49 11 -70 -10z"/>
<path d="M1701 519 c-14 -5 -21 -15 -18 -23 3 -8 11 -33 18 -56 12 -39 14 -41
43 -36 35 7 40 11 31 25 -4 8 -12 8 -26 1 -10 -6 -19 -9 -19 -6 0 2 -3 11 -6
20 -4 10 -1 16 9 16 17 0 33 18 24 26 -3 3 -15 1 -26 -6 -17 -8 -21 -8 -21 4
0 8 9 18 20 21 11 4 18 11 15 16 -7 11 -13 11 -44 -2z"/>
<path d="M1247 502 c-55 -60 26 -149 83 -92 27 27 26 75 -2 94 -30 21 -61 20
-81 -2z m73 -17 c7 -8 10 -25 6 -39 -11 -44 -76 -38 -76 7 0 43 44 63 70 32z"/>
<path d="M1595 490 c-9 -15 15 -120 27 -120 6 0 8 13 4 33 l-6 32 25 -30 c13
-16 27 -26 31 -22 4 4 -1 16 -11 27 -14 16 -15 23 -6 34 18 21 -3 56 -34 56
-13 0 -27 -5 -30 -10z"/>
<path d="M1380 468 c0 -13 -3 -40 -6 -60 -5 -25 -3 -38 5 -38 6 0 11 11 11 25
0 14 5 25 10 25 6 0 10 -6 10 -13 0 -7 7 -22 15 -33 15 -18 16 -17 10 13 -4
18 -1 40 6 51 18 29 5 52 -31 52 -24 0 -30 -4 -30 -22z"/>
<path d="M1474 468 c3 -13 6 -42 6 -65 0 -42 0 -42 33 -36 45 8 57 21 57 59 0
39 -29 64 -73 64 -26 0 -29 -3 -23 -22z m60 -11 c24 -18 17 -58 -11 -68 -22
-8 -23 -6 -23 36 0 48 5 53 34 32z"/>
<path d="M420 1477 c-14 -13 -33 -26 -42 -30 -30 -11 -20 -27 17 -27 31 0 36
3 42 30 8 44 20 45 28 4 6 -34 8 -36 41 -32 41 5 42 0 8 -27 -23 -18 -24 -23
-14 -49 14 -38 9 -41 -24 -15 l-27 21 -25 -23 c-13 -12 -24 -25 -24 -28 0 -3
22 -6 50 -6 55 0 78 15 86 60 3 15 9 36 15 46 7 14 4 22 -17 36 -14 10 -37 28
-51 41 -32 27 -33 27 -63 -1z"/>
<path d="M342 1413 c9 -19 27 -60 35 -83 l10 -25 16 32 c10 18 17 34 17 37 0
5 -68 46 -76 46 -3 0 -4 -3 -2 -7z"/>
<path d="M2482 1441 c-43 -40 -43 -40 -28 -70 9 -16 16 -36 16 -44 0 -25 34
-42 80 -42 25 1 50 4 57 8 6 4 19 32 28 62 14 44 15 58 5 70 -7 8 -17 15 -23
15 -6 0 -21 10 -34 22 -28 26 -35 21 -24 -18 6 -23 13 -29 37 -31 16 0 34 -2
39 -2 6 -1 -4 -11 -22 -22 -32 -20 -34 -36 -10 -67 19 -24 -3 -25 -28 -2 l-25
23 -25 -23 c-30 -28 -39 -23 -25 15 10 26 8 31 -17 51 l-28 23 38 1 c23 0 37
5 37 13 0 6 3 22 6 35 9 32 -5 27 -54 -17z"/>
<path d="M442 1053 c-30 -6 -25 -37 7 -41 23 -4 41 11 41 36 0 12 -6 13 -48 5z"/>
<path d="M919 392 c-7 -15 -15 -31 -17 -35 -2 -5 9 -7 24 -5 23 2 30 9 32 29
4 37 -22 44 -39 11z"/>
<path d="M1496 244 c-20 -19 -20 -38 -1 -54 18 -15 45 -10 59 12 8 13 6 22 -8
37 -23 25 -30 26 -50 5z"/>
</g>
</svg>
